<svg role="img" viewBox="0 0 48 48" fill="none" xmlns="http://www.w3.org/2000/svg">
<path d="M0.514126 6.0999C0.27199 2.66963 3.17673 0 6.60852 0H13.9545C15.7161 0 17.305 1.06141 17.9825 2.69084L21.0543 10.0786C21.8026 11.8782 21.2715 13.9569 19.7523 15.1748L17.8375 16.7099C16.9829 17.3949 16.6924 18.5762 17.1991 19.5473C19.803 24.5375 23.6514 28.7727 28.3314 31.8397C29.3192 32.4869 30.6241 32.2294 31.3611 31.3064L33.3565 28.8068C34.5718 27.2845 36.6462 26.7524 38.4421 27.5022L45.8146 30.5804C47.4409 31.2593 48.5 32.8515 48.5 34.6167V41.9994C48.5 45.4384 45.7374 48.2286 42.3142 47.9852C20.425 46.4279 2.06592 28.0837 0.514126 6.0999Z" fill="black"/>
</svg>
